<?xml version="1.0" standalone="no"?>
<!DOCTYPE svg PUBLIC "-//W3C//DTD SVG 20010904//EN"
 "http://www.w3.org/TR/2001/REC-SVG-20010904/DTD/svg10.dtd">
<svg version="1.0" xmlns="http://www.w3.org/2000/svg"
 width="415.000000pt" height="415.000000pt" viewBox="0 0 415.000000 415.000000"
 preserveAspectRatio="xMidYMid meet">

<g transform="translate(0.000000,415.000000) scale(0.100000,-0.100000)"
fill="#000000" stroke="none">
<path d="M350 4087 c-348 -119 -448 -555 -186 -812 153 -151 363 -184 555 -89
178 88 281 269 269 470 -13 208 -149 380 -347 438 -81 24 -211 21 -291 -7z"/>
<path d="M2925 2806 c-148 -24 -285 -79 -400 -161 -73 -51 -174 -157 -210
-220 -15 -25 -31 -45 -36 -45 -5 0 -9 81 -9 185 l0 185 -405 0 -405 0 0 -1365
0 -1365 425 0 425 0 0 743 c0 477 4 774 11 832 28 226 111 368 254 436 81 39
161 52 275 47 191 -9 307 -98 365 -279 41 -129 45 -225 45 -1019 l0 -750 425
0 425 0 0 738 c0 800 -9 1064 -39 1242 -80 464 -297 707 -705 785 -112 22
-341 28 -441 11z"/>
<path d="M80 1385 l0 -1365 423 2 422 3 3 1363 2 1362 -425 0 -425 0 0 -1365z"/>
</g>
</svg>
