<?xml version="1.0" encoding="UTF-8"?>
<!DOCTYPE svg PUBLIC "-//W3C//DTD SVG 1.1//EN" "http://www.w3.org/Graphics/SVG/1.1/DTD/svg11.dtd">
<svg xmlns="http://www.w3.org/2000/svg" version="1.1" width="1280px" height="256px" style="shape-rendering:geometricPrecision; text-rendering:geometricPrecision; image-rendering:optimizeQuality; fill-rule:evenodd; clip-rule:evenodd" xmlns:xlink="http://www.w3.org/1999/xlink">
<g><path style="opacity:1" fill="#fefefe" d="M -0.5,-0.5 C 426.167,-0.5 852.833,-0.5 1279.5,-0.5C 1279.5,84.8333 1279.5,170.167 1279.5,255.5C 852.833,255.5 426.167,255.5 -0.5,255.5C -0.5,170.167 -0.5,84.8333 -0.5,-0.5 Z"/></g>
<g><path style="opacity:1" fill="#060606" d="M 689.5,102.5 C 689.5,104.5 689.5,106.5 689.5,108.5C 685.833,108.5 682.167,108.5 678.5,108.5C 675.916,95.9307 668.082,89.9307 655,90.5C 646.918,90.0702 640.585,93.0702 636,99.5C 632.673,110.662 636.839,117.162 648.5,119C 659.035,120.884 669.368,123.55 679.5,127C 691.193,133.048 695.36,142.548 692,155.5C 687.843,168.183 679.01,175.016 665.5,176C 649.741,178.856 636.241,174.69 625,163.5C 621.842,157.695 620.009,151.529 619.5,145C 623.486,144.501 627.486,144.334 631.5,144.5C 633.146,159.596 641.646,166.929 657,166.5C 663.082,165.885 668.915,164.385 674.5,162C 680.055,157.422 681.888,151.588 680,144.5C 679.215,142.714 678.049,141.214 676.5,140C 671.58,137.804 666.58,135.804 661.5,134C 649.548,132.935 638.548,129.268 628.5,123C 619.751,109.383 621.417,97.0501 633.5,86C 637.495,83.5044 641.828,81.8378 646.5,81C 658.621,78.9614 669.954,80.9614 680.5,87C 685.428,91.084 688.428,96.2507 689.5,102.5 Z"/></g>
<g><path style="opacity:1" fill="#050505" d="M 811.5,102.5 C 811.5,104.5 811.5,106.5 811.5,108.5C 807.833,108.5 804.167,108.5 800.5,108.5C 797.916,95.9307 790.082,89.9307 777,90.5C 768.918,90.0702 762.585,93.0702 758,99.5C 754.673,110.662 758.839,117.162 770.5,119C 781.035,120.884 791.368,123.55 801.5,127C 813.193,133.048 817.36,142.548 814,155.5C 809.843,168.183 801.01,175.016 787.5,176C 771.741,178.856 758.241,174.69 747,163.5C 743.842,157.695 742.009,151.529 741.5,145C 745.486,144.501 749.486,144.334 753.5,144.5C 754.273,157.773 761.273,164.939 774.5,166C 782.206,166.766 789.539,165.433 796.5,162C 802.055,157.422 803.888,151.588 802,144.5C 801.215,142.714 800.049,141.214 798.5,140C 793.58,137.804 788.58,135.804 783.5,134C 771.548,132.935 760.548,129.268 750.5,123C 741.748,109.394 743.415,97.0603 755.5,86C 759.495,83.5044 763.828,81.8378 768.5,81C 780.621,78.9614 791.954,80.9614 802.5,87C 807.428,91.084 810.428,96.2507 811.5,102.5 Z"/></g>
<g><path style="opacity:1" fill="#050505" d="M 1161.5,79.5 C 1174.15,78.4126 1185.82,81.2459 1196.5,88C 1210.93,101.357 1216.09,117.857 1212,137.5C 1205.51,166.677 1187.34,179.51 1157.5,176C 1139.56,171.729 1128.73,160.562 1125,142.5C 1120.9,124.583 1124.23,108.25 1135,93.5C 1142.32,85.7588 1151.15,81.0921 1161.5,79.5 Z"/></g>
<g><path style="opacity:1" fill="#040404" d="M 143.5,172.5 C 139.366,173.485 135.032,173.818 130.5,173.5C 127.798,164.562 124.798,155.729 121.5,147C 109.171,146.5 96.8378,146.333 84.5,146.5C 81.9059,155.281 78.9059,163.948 75.5,172.5C 71.2047,173.661 66.8713,173.828 62.5,173C 73.8909,143.618 85.0576,114.118 96,84.5C 98.3834,83.2343 101.05,82.5676 104,82.5C 106.5,82.8333 109,83.1667 111.5,83.5C 122.565,113.028 133.231,142.694 143.5,172.5 Z"/></g>
<g><path style="opacity:1" fill="#000000" d="M 156.5,82.5 C 178.833,82.5 201.167,82.5 223.5,82.5C 223.5,86.1667 223.5,89.8333 223.5,93.5C 205.167,93.5 186.833,93.5 168.5,93.5C 168.5,102.833 168.5,112.167 168.5,121.5C 185.5,121.5 202.5,121.5 219.5,121.5C 219.5,124.833 219.5,128.167 219.5,131.5C 202.5,131.5 185.5,131.5 168.5,131.5C 168.5,142.167 168.5,152.833 168.5,163.5C 187.167,163.5 205.833,163.5 224.5,163.5C 224.5,166.833 224.5,170.167 224.5,173.5C 201.833,173.5 179.167,173.5 156.5,173.5C 156.5,143.167 156.5,112.833 156.5,82.5 Z"/></g>
<g><path style="opacity:1" fill="#080808" d="M 306.5,82.5 C 306.5,85.8333 306.5,89.1667 306.5,92.5C 296.319,92.1726 286.319,92.506 276.5,93.5C 276.5,120.167 276.5,146.833 276.5,173.5C 272.167,173.5 267.833,173.5 263.5,173.5C 263.5,146.833 263.5,120.167 263.5,93.5C 253.167,93.5 242.833,93.5 232.5,93.5C 232.5,89.8333 232.5,86.1667 232.5,82.5C 257.167,82.5 281.833,82.5 306.5,82.5 Z"/></g>
<g><path style="opacity:1" fill="#030303" d="M 330.5,82.5 C 330.5,95.1667 330.5,107.833 330.5,120.5C 346.833,120.5 363.167,120.5 379.5,120.5C 379.5,107.833 379.5,95.1667 379.5,82.5C 383.5,82.5 387.5,82.5 391.5,82.5C 391.5,112.833 391.5,143.167 391.5,173.5C 387.5,173.5 383.5,173.5 379.5,173.5C 379.829,159.323 379.496,145.323 378.5,131.5C 363.009,130.504 347.342,130.17 331.5,130.5C 331.5,144.833 331.5,159.167 331.5,173.5C 327.167,173.5 322.833,173.5 318.5,173.5C 318.5,143.167 318.5,112.833 318.5,82.5C 322.5,82.5 326.5,82.5 330.5,82.5 Z"/></g>
<g><path style="opacity:1" fill="#000000" d="M 411.5,82.5 C 433.833,82.5 456.167,82.5 478.5,82.5C 478.5,86.1667 478.5,89.8333 478.5,93.5C 460.167,93.5 441.833,93.5 423.5,93.5C 423.5,102.833 423.5,112.167 423.5,121.5C 440.5,121.5 457.5,121.5 474.5,121.5C 474.5,124.833 474.5,128.167 474.5,131.5C 457.5,131.5 440.5,131.5 423.5,131.5C 423.5,142.167 423.5,152.833 423.5,163.5C 442.167,163.5 460.833,163.5 479.5,163.5C 479.5,166.833 479.5,170.167 479.5,173.5C 456.833,173.5 434.167,173.5 411.5,173.5C 411.5,143.167 411.5,112.833 411.5,82.5 Z"/></g>
<g><path style="opacity:1" fill="#030303" d="M 497.5,82.5 C 514.837,82.3334 532.17,82.5001 549.5,83C 560.75,84.9162 567.25,91.4162 569,102.5C 570.854,113.784 567.02,122.451 557.5,128.5C 560.458,130.956 563.291,133.622 566,136.5C 567.174,146.456 568.174,156.456 569,166.5C 569.914,168.664 571.081,170.664 572.5,172.5C 567.544,173.494 562.544,173.827 557.5,173.5C 556.021,163.907 555.187,154.241 555,144.5C 553.735,138.938 550.235,135.772 544.5,135C 532.838,134.5 521.171,134.333 509.5,134.5C 508.505,147.323 508.171,160.323 508.5,173.5C 504.833,173.5 501.167,173.5 497.5,173.5C 497.5,143.167 497.5,112.833 497.5,82.5 Z"/></g>
<g><path style="opacity:1" fill="#000000" d="M 590.5,82.5 C 594.5,82.5 598.5,82.5 602.5,82.5C 602.5,112.833 602.5,143.167 602.5,173.5C 598.5,173.5 594.5,173.5 590.5,173.5C 590.5,143.167 590.5,112.833 590.5,82.5 Z"/></g>
<g><path style="opacity:1" fill="#080808" d="M 896.5,82.5 C 896.5,85.8333 896.5,89.1667 896.5,92.5C 886.319,92.1726 876.319,92.506 866.5,93.5C 866.5,120.167 866.5,146.833 866.5,173.5C 862.167,173.5 857.833,173.5 853.5,173.5C 853.5,146.833 853.5,120.167 853.5,93.5C 843.167,93.5 832.833,93.5 822.5,93.5C 822.5,89.8333 822.5,86.1667 822.5,82.5C 847.167,82.5 871.833,82.5 896.5,82.5 Z"/></g>
<g><path style="opacity:1" fill="#050505" d="M 909.5,82.5 C 913.5,82.5 917.5,82.5 921.5,82.5C 921.333,103.169 921.5,123.836 922,144.5C 923.488,157.49 930.655,164.49 943.5,165.5C 954.39,166.476 962.223,162.142 967,152.5C 968.459,129.219 968.959,105.886 968.5,82.5C 972.833,82.5 977.167,82.5 981.5,82.5C 981.667,103.169 981.5,123.836 981,144.5C 978.301,166.035 966.134,176.702 944.5,176.5C 922.72,176.201 911.22,165.201 910,143.5C 909.5,123.169 909.333,102.836 909.5,82.5 Z"/></g>
<g><path style="opacity:1" fill="#676767" d="M 1001.5,82.5 C 1001.5,112.833 1001.5,143.167 1001.5,173.5C 1014.83,173.5 1028.17,173.5 1041.5,173.5C 1028.01,174.496 1014.34,174.829 1000.5,174.5C 1000.17,143.662 1000.5,112.995 1001.5,82.5 Z"/></g>
<g><path style="opacity:1" fill="#030303" d="M 1001.5,82.5 C 1016.84,82.3334 1032.17,82.5001 1047.5,83C 1063.3,88.1394 1072.8,98.9727 1076,115.5C 1078.26,131.636 1075.26,146.636 1067,160.5C 1060.47,168.683 1051.97,173.017 1041.5,173.5C 1028.17,173.5 1014.83,173.5 1001.5,173.5C 1001.5,143.167 1001.5,112.833 1001.5,82.5 Z"/></g>
<g><path style="opacity:1" fill="#000000" d="M 1095.5,82.5 C 1099.5,82.5 1103.5,82.5 1107.5,82.5C 1107.5,112.833 1107.5,143.167 1107.5,173.5C 1103.5,173.5 1099.5,173.5 1095.5,173.5C 1095.5,143.167 1095.5,112.833 1095.5,82.5 Z"/></g>
<g><path style="opacity:1" fill="#fcfcfc" d="M 1165.5,90.5 C 1184.62,90.4732 1196.12,99.8066 1200,118.5C 1201.49,129.675 1199.83,140.342 1195,150.5C 1190.71,158.896 1183.88,163.729 1174.5,165C 1153.07,167.878 1140.57,158.711 1137,137.5C 1133.75,120.991 1138.25,107.157 1150.5,96C 1155.2,93.0846 1160.2,91.2513 1165.5,90.5 Z"/></g>
<g><path style="opacity:1" fill="#464646" d="M 306.5,82.5 C 307.482,85.9619 307.815,89.6286 307.5,93.5C 297.167,93.5 286.833,93.5 276.5,93.5C 286.319,92.506 296.319,92.1726 306.5,92.5C 306.5,89.1667 306.5,85.8333 306.5,82.5 Z"/></g>
<g><path style="opacity:1" fill="#464646" d="M 896.5,82.5 C 897.482,85.9619 897.815,89.6286 897.5,93.5C 887.167,93.5 876.833,93.5 866.5,93.5C 876.319,92.506 886.319,92.1726 896.5,92.5C 896.5,89.1667 896.5,85.8333 896.5,82.5 Z"/></g>
<g><path style="opacity:1" fill="#f8f8f8" d="M 509.5,92.5 C 521.171,92.3335 532.838,92.5001 544.5,93C 552.849,94.8441 556.849,100.011 556.5,108.5C 557.417,115.752 554.417,120.586 547.5,123C 534.908,124.441 522.241,124.941 509.5,124.5C 509.5,113.833 509.5,103.167 509.5,92.5 Z"/></g>
<g><path style="opacity:1" fill="#fcfcfc" d="M 1013.5,92.5 C 1022.51,92.3336 1031.51,92.5002 1040.5,93C 1052.14,94.6461 1059.31,101.146 1062,112.5C 1065.13,126.374 1063.8,139.707 1058,152.5C 1054.47,158.352 1049.31,161.852 1042.5,163C 1032.84,163.5 1023.17,163.666 1013.5,163.5C 1013.5,139.833 1013.5,116.167 1013.5,92.5 Z"/></g>
<g><path style="opacity:1" fill="#f8f8f8" d="M 102.5,96.5 C 103.497,96.4701 104.164,96.9701 104.5,98C 108.541,110.623 112.874,123.123 117.5,135.5C 107.851,136.665 98.1839,136.832 88.5,136C 93.8623,123.08 98.529,109.913 102.5,96.5 Z"/></g>
<g><path style="opacity:1" fill="#525252" d="M 689.5,102.5 C 690.468,104.607 690.802,106.941 690.5,109.5C 686.298,109.817 682.298,109.483 678.5,108.5C 682.167,108.5 685.833,108.5 689.5,108.5C 689.5,106.5 689.5,104.5 689.5,102.5 Z"/></g>
<g><path style="opacity:1" fill="#505050" d="M 811.5,102.5 C 812.468,104.607 812.802,106.941 812.5,109.5C 808.298,109.817 804.298,109.483 800.5,108.5C 804.167,108.5 807.833,108.5 811.5,108.5C 811.5,106.5 811.5,104.5 811.5,102.5 Z"/></g>
<g><path style="opacity:1" fill="#8f8f8f" d="M 330.5,82.5 C 331.495,94.6554 331.829,106.989 331.5,119.5C 347.167,119.5 362.833,119.5 378.5,119.5C 378.171,106.989 378.505,94.6554 379.5,82.5C 379.5,95.1667 379.5,107.833 379.5,120.5C 363.167,120.5 346.833,120.5 330.5,120.5C 330.5,107.833 330.5,95.1667 330.5,82.5 Z"/></g>
<g><path style="opacity:1" fill="#656565" d="M 378.5,131.5 C 379.496,145.323 379.829,159.323 379.5,173.5C 383.5,173.5 387.5,173.5 391.5,173.5C 387.366,174.485 383.032,174.818 378.5,174.5C 378.5,160.167 378.5,145.833 378.5,131.5 Z"/></g>
<g><path style="opacity:1" fill="#404040" d="M 497.5,82.5 C 497.5,112.833 497.5,143.167 497.5,173.5C 501.167,173.5 504.833,173.5 508.5,173.5C 508.171,160.323 508.505,147.323 509.5,134.5C 509.5,147.833 509.5,161.167 509.5,174.5C 505.167,174.5 500.833,174.5 496.5,174.5C 496.169,143.662 496.502,112.995 497.5,82.5 Z"/></g>
<g><path style="opacity:1" fill="#818181" d="M 143.5,172.5 C 144.043,172.56 144.376,172.893 144.5,173.5C 139.682,174.812 135.015,174.812 130.5,173.5C 135.032,173.818 139.366,173.485 143.5,172.5 Z"/></g>
</svg>
