<svg xmlns="http://www.w3.org/2000/svg" viewBox="0 0 480 603" color="#111317" role="img" aria-labelledby="title desc">
  <title id="title">Aetheris Studio ÆS master mark</title>
  <desc id="desc">Canonical vertical Aetheris Studio monogram synchronized from the approved Figma B8 source master.</desc>
  <g id="approved-ae" fill="currentColor">
    <path id="a-outer-leg" d="M31 578L207 25H233L57 578H31Z"/>
    <path id="ae-shared-spine" d="M216 25H242V578H216V25Z"/>
    <path id="e-registers" d="M216 25H340V49H216V25ZM216 288H334V312H216V288ZM216 554H340V578H216V554Z"/>
    <path id="a-cross-connection" d="M111 188H175L243 299L223 312L163 212H111V188Z"/>
  </g>
  <path id="s-b8-final-outline" fill="currentColor" d="M393.705078125 25C409.06885051727295 46.12514877319336 426.40802574157715 67.25204849243164 439.19140625 87.818359375C452.2579574584961 108.8403549194336 462 131.3275146484375 462 157C461.99988897681033 207.97215270996094 439.7486572265625 258.622314453125 419.0029296875 306.2880859375C397.74874687194824 355.1221008300781 378 400.972412109375 378 446C378.0000916879071 465.3273124694824 385.25810623168945 483.3119297027588 397.19140625 502.5107421875C409.4079189300537 522.1651611328125 425.069034576416 541.0092163085938 441.705078125 563.8837890625L452.1383056640625 578H422.294921875C406.93103408813477 556.8746681213379 389.5920648574829 535.7471656799316 376.80859375 515.1806640625C363.7421007156372 494.1587600708008 354.00009264223627 471.6723327636719 354 446C354 395.0276298522949 376.25126457214355 344.3768882751465 396.9970703125 296.7109375C418.2511901855469 247.87705993652344 437.99988846090855 202.02748107910156 438 157C438 137.67249298095703 430.7420301437378 119.6872787475586 418.80859375 100.48828125C406.59207916259766 80.83386611938477 390.930965423584 61.98979568481445 374.294921875 39.115234375L363.8153247833252 25H393.705078125Z"/>
</svg>
